<svg id="Layer_1" data-name="Layer 1" xmlns="http://www.w3.org/2000/svg" viewBox="0 0 698.66 589.04"><defs><style>.cls-1{fill:#88c9d1;}.cls-2{fill:#50577f;}.cls-3{fill:none;stroke:#fff;stroke-linecap:square;stroke-miterlimit:10;stroke-width:4px;stroke-dasharray:8.96 8.96;}.cls-4{fill:#444b68;}.cls-5{fill:#6b779b;}.cls-6{fill:#fff;}</style></defs><g id="Layer_2" data-name="Layer 2"><g id="Layer_1-2" data-name="Layer 1-2"><polygon class="cls-1" points="349.33 0 386.52 25.3 429.16 10.97 458.15 45.37 503.07 43.08 521.7 84.02 565.58 93.93 572.48 138.38 612.05 159.77 606.7 204.43 639.04 235.7 621.83 277.26 644.54 316.09 616.75 351.47 628.14 394.99 591.84 421.56 591.07 466.54 548.95 482.33 536.07 525.43 491.25 529.27 467.22 567.3 423.02 558.91 389.62 589.04 349.33 569.04 309.04 589.04 275.64 558.91 231.44 567.3 207.41 529.27 162.59 525.43 149.71 482.33 107.59 466.54 106.81 421.56 70.52 394.99 81.91 351.47 54.12 316.09 76.83 277.26 59.62 235.7 91.96 204.43 86.61 159.77 126.19 138.38 133.08 93.93 176.96 84.02 195.59 43.08 240.51 45.37 269.5 10.97 312.14 25.3 349.33 0"/><circle class="cls-2" cx="349.33" cy="294.52" r="252.38"/><circle class="cls-1" cx="349.33" cy="294.52" r="186.11"/><circle class="cls-3" cx="349.33" cy="294.52" r="239.49"/><polygon class="cls-2" points="81.52 405.44 0 413.93 21.56 349.9 0 290.36 81.52 281.88 81.52 405.44"/><polygon class="cls-2" points="617.14 183.6 698.66 175.11 677.1 239.14 698.66 298.68 617.14 307.16 617.14 183.6"/><polygon class="cls-4" points="40.41 388.46 81.52 405.44 81.52 367.88 40.41 388.46"/><polygon class="cls-5" points="658.25 324.14 40.41 388.46 40.41 264.9 658.25 200.58 658.25 324.14"/><path class="cls-6" d="M164.66,324.37A20.56,20.56,0,0,1,164,330a20.25,20.25,0,0,1-2.51,5.95,18,18,0,0,1-4.63,4.93,14,14,0,0,1-7,2.54,12.74,12.74,0,0,1-4.76-.39,10.27,10.27,0,0,1-4.1-2.26,12.36,12.36,0,0,1-3-4.32,19.37,19.37,0,0,1-1.46-6.54c-.06-1.06-.15-2.37-.26-3.94s-.3-3.53-.53-5.85l-.84-8.16q-.48-4.66-1.1-10.68c-.67,1.47-1.39,3.24-2.16,5.33s-1.63,4.3-2.51,6.66-1.78,4.75-2.69,7.2-1.81,4.78-2.69,7-1.71,4.29-2.47,6.16-1.44,3.4-2,4.58a35.89,35.89,0,0,1-1.85,3.36,22.56,22.56,0,0,1-2,2.86,13.77,13.77,0,0,1-2.11,2.07,4.29,4.29,0,0,1-2.21.94,3.88,3.88,0,0,1-3.7-1.6,14.77,14.77,0,0,1-2.29-5.1,30.88,30.88,0,0,1-.57-3.82q-.41-3.3-.93-8.32t-1.19-11.2q-.66-6.19-1.19-12.48c-.53,1.34-1.16,3-1.89,5s-1.56,4.22-2.47,6.61-1.89,4.87-3,7.47-2.13,5.1-3.31,7.57a79.6,79.6,0,0,1-4,7.38,53.41,53.41,0,0,1-4.37,6.18,23,23,0,0,1-4.67,4.37,10.82,10.82,0,0,1-5,1.93,16.79,16.79,0,0,1-5.29-.29,13.93,13.93,0,0,1-4.76-1.93,13.11,13.11,0,0,1-3.62-3.5,11,11,0,0,1-1.85-5.1,9.29,9.29,0,0,1,3.13-3.54,7.51,7.51,0,0,1,3.82-1.2,10,10,0,0,1,3.83.66,16.74,16.74,0,0,1,3.7,2c-.12.48-.29,1.19-.53,2.13s-.44,1.89-.61,2.88a9.5,9.5,0,0,0-.14,2.66c.09.79.43,1.23,1,1.35a4,4,0,0,0,2.64-.58,15.86,15.86,0,0,0,2.87-2,31.34,31.34,0,0,0,2.47-2.42,18.55,18.55,0,0,0,1.54-1.88,56.53,56.53,0,0,0,4.14-7.31Q87,329,89.14,323.93t4.19-10.53l4-10.5q1.89-5.06,3.57-9.37c1.11-2.88,2.11-5.27,3-7.19a20.72,20.72,0,0,1,3.17-5.13,5.78,5.78,0,0,1,3.7-2.11,3.68,3.68,0,0,1,3,1.41,8.28,8.28,0,0,1,1.94,4.69c.06.35.17,1.29.35,2.83s.38,3.46.62,5.75.48,4.88.75,7.73.53,5.73.79,8.64.5,5.77.71,8.57.36,5.31.48,7.53q1.77-4.32,3.92-10.19t4.5-12.11q2.34-6.24,4.8-12.27a115.85,115.85,0,0,1,5-10.79c1.7-3.23,3.41-4.94,5.11-5.12a2.86,2.86,0,0,1,2.34.82A8.82,8.82,0,0,1,147,280a46.59,46.59,0,0,1,1.11,5.22c.38,2.29.74,4.89,1.1,7.82s.7,6.06,1,9.37.71,6.55,1.06,9.72.72,6.14,1.1,8.92.78,5.12,1.19,7a12.05,12.05,0,0,0,1.59,4.46,3,3,0,0,0,2,1.46,2.67,2.67,0,0,0,2.07-.79,9.15,9.15,0,0,0,1.85-2.35,14.68,14.68,0,0,0,1.37-3.18,11.37,11.37,0,0,0,.53-3.23Z"/><path class="cls-6" d="M195.25,323.74a36.61,36.61,0,0,1-2.86,7.57,20,20,0,0,1-3.71,5,13.81,13.81,0,0,1-4.62,2.95,21.7,21.7,0,0,1-5.56,1.28q-7.14.75-10.18-2.2t-1.81-10c.36-1.86.85-3.93,1.5-6.24s1.28-4.52,1.9-6.67,1.13-4.07,1.54-5.76a8.42,8.42,0,0,0,.35-3.56,1.55,1.55,0,0,0-2-.94l-.23.11-.35-.58a15.74,15.74,0,0,1,5.86-3.35,13.58,13.58,0,0,1,6.13-.63,11.71,11.71,0,0,1,2.9.88,4.66,4.66,0,0,1,2.12,2,7.8,7.8,0,0,1,.88,3.61,18.36,18.36,0,0,1-.88,5.6c-.06.18-.19.67-.4,1.45s-.47,1.76-.79,2.9-.66,2.36-1,3.64-.68,2.46-1,3.58-.56,2.08-.8,2.9a11.17,11.17,0,0,0-.35,1.41,3.42,3.42,0,0,0,.31,3,3.58,3.58,0,0,0,2.34,1.43,4.23,4.23,0,0,0,3.12-.72,11.6,11.6,0,0,0,2.78-2.54,21.51,21.51,0,0,0,2.16-3.27,15.56,15.56,0,0,0,1.28-3l1.23.13Zm-11-43.81a8.24,8.24,0,0,1,3.35.31,7.29,7.29,0,0,1,2.74,1.57,7.84,7.84,0,0,1,2.46,5.78,9.55,9.55,0,0,1-8.55,9.44,7.82,7.82,0,0,1-6-1.84,6.86,6.86,0,0,1-1.85-2.54,8,8,0,0,1-.66-3.28,8.84,8.84,0,0,1,.66-3.37,10,10,0,0,1,1.85-2.93,10.31,10.31,0,0,1,2.74-2.13,8.82,8.82,0,0,1,3.28-1Z"/><path class="cls-6" d="M195.34,313.24a22.63,22.63,0,0,1,4-7.38,27.22,27.22,0,0,1,6-5.38A29.54,29.54,0,0,1,212.4,297a33.89,33.89,0,0,1,7.45-1.66,21.62,21.62,0,0,1,5.68.16,14.29,14.29,0,0,1,4.94,1.74,11.41,11.41,0,0,1,3.61,3.37,11.74,11.74,0,0,1,1.9,5,9.19,9.19,0,0,1-3.09,3.54,7.31,7.31,0,0,1-3.65,1.18,10.29,10.29,0,0,1-3.88-.66,16.08,16.08,0,0,1-3.75-1.94c.12-.49.31-1.21.57-2.18a28.89,28.89,0,0,0,.66-2.93,7.63,7.63,0,0,0,.09-2.61c-.12-.75-.47-1.19-1.06-1.3a4.27,4.27,0,0,0-2.38.47,9.1,9.1,0,0,0-2.91,2.28,19.8,19.8,0,0,0-2.9,4.45,33.28,33.28,0,0,0-2.47,7,21.4,21.4,0,0,0-.8,6.61,12,12,0,0,0,1.28,4.94,9.62,9.62,0,0,0,2.87,3.31,10.33,10.33,0,0,0,4,1.75,14.65,14.65,0,0,0,5.6,0,16.75,16.75,0,0,0,5.73-2.32,19,19,0,0,0,5-4.62,21.65,21.65,0,0,0,3.44-6.79l1.76.34a22.5,22.5,0,0,1-3.65,8.23,27.93,27.93,0,0,1-6.18,6.24,31.87,31.87,0,0,1-7.84,4.21,33,33,0,0,1-8.77,2,25.92,25.92,0,0,1-10.14-.84,13.77,13.77,0,0,1-6.79-4.4,14.12,14.12,0,0,1-2.91-7.68,26.51,26.51,0,0,1,1.5-10.56Z"/><path class="cls-6" d="M292.66,313.87a33.93,33.93,0,0,1-2.77,7.56,19.33,19.33,0,0,1-3.75,5,14.29,14.29,0,0,1-4.67,2.95,22.14,22.14,0,0,1-5.56,1.29q-7.05.74-10.09-2.22t-1.81-10c.18-1.08.44-2.3.8-3.66s.73-2.73,1.14-4.13.81-2.75,1.19-4.09.72-2.54,1-3.63a7,7,0,0,0-.13-4.61,3.27,3.27,0,0,0-2.51-2.25c-1.29-.28-2.76.45-4.41,2.17s-3.08,4.89-4.32,9.49v-.18l-4.14,15.6a15.3,15.3,0,0,0-.53,3.62,5.16,5.16,0,0,0,1.76,3.92l-.35,1.44c-1.23.31-2.41.56-3.53.77a26.69,26.69,0,0,1-3.34.39,17.35,17.35,0,0,1-4.77-.25,5.94,5.94,0,0,1-3.35-1.86,6.84,6.84,0,0,1-1.49-3.94,19.89,19.89,0,0,1,.7-6.51l11.2-42.86a13.45,13.45,0,0,0,.44-2c.11-.77.2-1.58.26-2.41a21,21,0,0,0,.05-2.38,4.38,4.38,0,0,0-.4-1.81,1.58,1.58,0,0,0-2.06-.89l-.14.06-.36-.67a18,18,0,0,1,4.23-2.55,15.22,15.22,0,0,1,4.59-1.27,8.31,8.31,0,0,1,5.33.94,7.58,7.58,0,0,1,3,3.52,12.89,12.89,0,0,1,1,5.05,20.62,20.62,0,0,1-.66,5.53l-4.85,18.14a18.87,18.87,0,0,1,6.79-5.56,17,17,0,0,1,7.66-1.85,11.86,11.86,0,0,1,4.77,1,8.63,8.63,0,0,1,5.33,7.46,16.84,16.84,0,0,1-.84,6.57c-.06.18-.19.62-.4,1.32s-.44,1.54-.7,2.54l-.84,3.22c-.3,1.15-.57,2.2-.84,3.17l-.7,2.54a7.84,7.84,0,0,0-.31,1.27,3.32,3.32,0,0,0,1.76,4.34,3.8,3.8,0,0,0,.88.23,4.24,4.24,0,0,0,3.13-.72,11.56,11.56,0,0,0,2.78-2.58,24.11,24.11,0,0,0,2.16-3.31,15.56,15.56,0,0,0,1.28-3Z"/><path class="cls-6" d="M326.34,286.47a12.61,12.61,0,0,1,6.25.23,5.39,5.39,0,0,1,3.84,3.92q.84,3-.57,7.82c-.06.24-.3,1.09-.71,2.54s-.84,3-1.28,4.72l-1.23,4.71c-.38,1.45-.6,2.27-.66,2.45a3.74,3.74,0,0,0,.26,3.15,3.46,3.46,0,0,0,2.38,1.42,3.77,3.77,0,0,0,3-.75,11.3,11.3,0,0,0,2.56-2.65,20.88,20.88,0,0,0,1.94-3.37,22.59,22.59,0,0,0,1.14-3l1.94.33a36.61,36.61,0,0,1-2.86,7.57,20,20,0,0,1-3.71,5,13.81,13.81,0,0,1-4.62,2.95,21.7,21.7,0,0,1-5.56,1.28q-9,.94-11.46-4a16.92,16.92,0,0,1-4.89,4.38,16.49,16.49,0,0,1-6.83,2.13,11.86,11.86,0,0,1-7.5-1.34,12.21,12.21,0,0,1-4.62-4.94,17.83,17.83,0,0,1-1.9-7.12A25,25,0,0,1,292,306a33.16,33.16,0,0,1,4.4-9.89,23.62,23.62,0,0,1,15.47-10.25,29.77,29.77,0,0,1,10.27-.1l2.12.48a9,9,0,0,0,2,.23Zm-10.23,29.1a13.36,13.36,0,0,1,.35-2.95c.36-1.85.87-4,1.55-6.42s1.33-4.76,2-7,1.17-4.31,1.59-6.12a9.64,9.64,0,0,0,.35-3.74,1.31,1.31,0,0,0-1.41-.91,10,10,0,0,0-4.72,2.39,21.7,21.7,0,0,0-3.7,4.35,28.65,28.65,0,0,0-2.73,5.31,44.59,44.59,0,0,0-1.72,5.16q-1.77,6.53-1,9.93c.53,2.26,1.55,3.64,3.08,4.13a4.71,4.71,0,0,0,3.93-.59A5.29,5.29,0,0,0,316.11,315.57Z"/><path class="cls-6" d="M344.41,297.72a22.63,22.63,0,0,1,4-7.38,27,27,0,0,1,6-5.39,31.29,31.29,0,0,1,7.09-3.47,33.87,33.87,0,0,1,7.45-1.65,19.19,19.19,0,0,1,7,.42,14.8,14.8,0,0,1,5.2,2.45,9.67,9.67,0,0,1,3.08,3.91,9.55,9.55,0,0,1,.71,4.78,11.41,11.41,0,0,1-1.85,4.86,17.33,17.33,0,0,1-4.68,4.63,30.45,30.45,0,0,1-7.71,3.76,44.81,44.81,0,0,1-11,2.07q1.41,6,8.72,7.11a14.08,14.08,0,0,0,6.7-.39,17,17,0,0,0,5.51-2.91,18.65,18.65,0,0,0,4.15-4.62,22.53,22.53,0,0,0,2.6-5.69l1.76.35a22.29,22.29,0,0,1-3.7,8.23,28.76,28.76,0,0,1-6.22,6.24,31.87,31.87,0,0,1-7.84,4.21,32.48,32.48,0,0,1-8.69,2,25.87,25.87,0,0,1-10.13-.84,13.71,13.71,0,0,1-6.79-4.4,14,14,0,0,1-2.91-7.68A26.21,26.21,0,0,1,344.41,297.72Zm15,6.91a10.23,10.23,0,0,0,5-2.11,17.82,17.82,0,0,0,3.79-4.06,22.85,22.85,0,0,0,2.56-4.93,26.25,26.25,0,0,0,1.32-4.86,10.74,10.74,0,0,0,0-3.75c-.21-1-.6-1.57-1.19-1.68a4.31,4.31,0,0,0-2.42.47A9.34,9.34,0,0,0,365.6,286a20.43,20.43,0,0,0-2.91,4.45,34.66,34.66,0,0,0-2.47,7c-.35,1.38-.61,2.68-.79,3.87a12.73,12.73,0,0,0,0,3.32Z"/><path class="cls-6" d="M397.92,262.36a13.73,13.73,0,0,0,.44-2c.11-.81.2-1.62.26-2.45s.07-1.63.05-2.39a4.34,4.34,0,0,0-.4-1.81,1.66,1.66,0,0,0-2.21-.74l-.35-.67a17.16,17.16,0,0,1,4.23-2.64,13.53,13.53,0,0,1,4.59-1.18,8.31,8.31,0,0,1,5.33.94,7.67,7.67,0,0,1,3,3.52,13,13,0,0,1,1,5,21.16,21.16,0,0,1-.66,5.49L403.15,302.2c-.18.67-.34,1.42-.49,2.26a9.43,9.43,0,0,0-.13,2.43,4.62,4.62,0,0,0,.66,2.1,2.58,2.58,0,0,0,1.81,1.13,3.83,3.83,0,0,0,2.95-.7,11.29,11.29,0,0,0,2.51-2.56,18.79,18.79,0,0,0,1.94-3.33,21.33,21.33,0,0,0,1.15-3l1.94.15a34.36,34.36,0,0,1-2.78,7.61,20,20,0,0,1-3.7,5.06,13.75,13.75,0,0,1-4.63,2.95,19.87,19.87,0,0,1-5.55,1.19q-5.65.51-8.47-1.59A8.48,8.48,0,0,1,387,310a24.89,24.89,0,0,1,0-4.05,23.61,23.61,0,0,1,.71-4Z"/><path class="cls-6" d="M481.93,289.05a17.08,17.08,0,0,1-1.46,8.66,20.88,20.88,0,0,1-4.85,6.63,25.45,25.45,0,0,1-6.83,4.5,25.84,25.84,0,0,1-7.4,2.18,21.75,21.75,0,0,1-9.39-.56,9.39,9.39,0,0,1-5.95-4.8A9.12,9.12,0,0,1,445,303a23.61,23.61,0,0,1-.49-2.77,9.32,9.32,0,0,1,3.13-3.55,7.49,7.49,0,0,1,3.7-1.18,10.06,10.06,0,0,1,3.84.66,17.21,17.21,0,0,1,3.7,1.95,27.13,27.13,0,0,0-.62,5,9,9,0,0,0,.4,3,2.3,2.3,0,0,0,1.1,1.38,2.18,2.18,0,0,0,1.59,0,6.7,6.7,0,0,0,4.72-3.66,14.81,14.81,0,0,0,1.27-6.22,28.24,28.24,0,0,0-.83-6.79,46.3,46.3,0,0,0-1.64-5.38,50.76,50.76,0,0,0-2.37-5c-.89-1.61-1.72-3.23-2.52-4.85s-1.53-3.25-2.2-4.89a23.5,23.5,0,0,1-1.46-5,19,19,0,0,1,.09-7.06,22.21,22.21,0,0,1,3.35-7.67,21.81,21.81,0,0,1,7.41-7.2,24.84,24.84,0,0,1,8.64-3,22.8,22.8,0,0,1,6.39,0,15.33,15.33,0,0,1,5.15,1.62,10.55,10.55,0,0,1,3.53,2.94,8.09,8.09,0,0,1,1.59,3.93,11.81,11.81,0,0,1-1.15,5.85,14.2,14.2,0,0,1-5.11,5.83l-1.32-1.45a12.56,12.56,0,0,0,3.26-4.75,9.41,9.41,0,0,0,.53-4.64,6.27,6.27,0,0,0-2.74-4.34c-1.52-1-3.55-1.29-6.08-.74a12.54,12.54,0,0,0-4.14,1.76,9.57,9.57,0,0,0-3.13,3.32,11.3,11.3,0,0,0-1.37,5,16.26,16.26,0,0,0,1.24,6.61c.76,2,1.66,4.13,2.69,6.47s2,4.72,3,7.18,1.82,4.85,2.56,7.18A27.62,27.62,0,0,1,481.93,289.05Z"/><path class="cls-6" d="M547,287.39a33.47,33.47,0,0,1-2.78,7.56,19.33,19.33,0,0,1-3.75,5,14.18,14.18,0,0,1-4.67,2.95,22.07,22.07,0,0,1-5.55,1.29q-7.07.74-10.1-2.21t-1.81-10c.18-1.08.45-2.29.8-3.65s.73-2.74,1.14-4.13.81-2.76,1.19-4.09.72-2.55,1-3.64a7,7,0,0,0-.13-4.61,3.32,3.32,0,0,0-2.52-2.25q-1.94-.42-4.4,2.18t-4.32,9.48v-.17L507,296.67a16.4,16.4,0,0,0-.53,3.62,5.12,5.12,0,0,0,1.77,3.92l-.36,1.45c-1.23.3-2.41.56-3.52.76a23.71,23.71,0,0,1-3.35.39,17.28,17.28,0,0,1-4.76-.25,5.93,5.93,0,0,1-3.35-1.85,7,7,0,0,1-1.5-3.95,19.89,19.89,0,0,1,.7-6.51l11.2-42.86a12.3,12.3,0,0,0,.44-2c.12-.78.21-1.58.27-2.41a14.66,14.66,0,0,0,0-2.39,4.19,4.19,0,0,0-.4-1.81,1.58,1.58,0,0,0-2.06-.89l-.14.06-.35-.66a17.56,17.56,0,0,1,4.23-2.56,15.24,15.24,0,0,1,4.58-1.27,8.34,8.34,0,0,1,5.34.94,7.67,7.67,0,0,1,3,3.52,13.26,13.26,0,0,1,1,5.05,20.7,20.7,0,0,1-.66,5.54l-4.85,18.13a18.76,18.76,0,0,1,6.79-5.55,16.89,16.89,0,0,1,7.67-1.86,11.81,11.81,0,0,1,4.76,1,8.87,8.87,0,0,1,3.61,2.8,9.08,9.08,0,0,1,1.72,4.67,16.43,16.43,0,0,1-.84,6.56q-.09.28-.39,1.32c-.21.7-.44,1.55-.71,2.54s-.54,2.08-.84,3.22-.57,2.21-.83,3.17-.5,1.82-.71,2.55a8.91,8.91,0,0,0-.31,1.26,3.32,3.32,0,0,0,1.78,4.35,3.6,3.6,0,0,0,.87.23,4.29,4.29,0,0,0,3.13-.73,11,11,0,0,0,2.77-2.58,21.87,21.87,0,0,0,2.16-3.31,14.41,14.41,0,0,0,1.28-3Z"/><path class="cls-6" d="M580.66,260a12.65,12.65,0,0,1,6.26.23,5.43,5.43,0,0,1,3.83,3.92q.84,3-.57,7.82c-.06.24-.29,1.09-.7,2.54s-.84,3-1.28,4.72-.86,3.26-1.24,4.71-.6,2.27-.66,2.45a3.74,3.74,0,0,0,.27,3.15A3.49,3.49,0,0,0,589,291a3.81,3.81,0,0,0,3-.76,11.07,11.07,0,0,0,2.56-2.64,21,21,0,0,0,1.94-3.38,21.33,21.33,0,0,0,1.15-3l1.93.33a36,36,0,0,1-2.86,7.57,19.72,19.72,0,0,1-3.7,5,13.6,13.6,0,0,1-4.63,2.95,22.07,22.07,0,0,1-5.55,1.29q-9,.93-11.46-4a17,17,0,0,1-4.9,4.39,16.48,16.48,0,0,1-6.83,2.12,11.82,11.82,0,0,1-7.49-1.34,12.24,12.24,0,0,1-4.63-4.94,17.83,17.83,0,0,1-1.9-7.12,25.75,25.75,0,0,1,.71-7.87,33.93,33.93,0,0,1,4.41-9.89,23.65,23.65,0,0,1,15.47-10.25,29.77,29.77,0,0,1,10.27-.1l2.11.48a7.92,7.92,0,0,0,2,.23Zm-10.23,29.1a11.8,11.8,0,0,1,.09-1.46,12.42,12.42,0,0,1,.27-1.48c.35-1.86.87-4,1.54-6.42s1.34-4.77,2-7,1.18-4.31,1.59-6.12a9.27,9.27,0,0,0,.35-3.74,1.3,1.3,0,0,0-1.41-.91,10,10,0,0,0-4.71,2.39,21.42,21.42,0,0,0-3.71,4.35,28.65,28.65,0,0,0-2.73,5.31,44.59,44.59,0,0,0-1.72,5.16q-1.77,6.52-1,9.93c.53,2.27,1.56,3.64,3.09,4.13a4.72,4.72,0,0,0,3.92-.58,5.31,5.31,0,0,0,2.43-3.57Z"/><path class="cls-6" d="M622.89,282l5.37-20.57q1.68-6.62,6-8.34T647,254.94l-.35,1a3.66,3.66,0,0,0-1.54,1.84,28.21,28.21,0,0,0-1.28,3.83l-8.47,32.27c-.11.48-.3,1.17-.57,2.08s-.48,1.61-.66,2.1a23.62,23.62,0,0,1-4,7.38,26.71,26.71,0,0,1-5.77,5.36,28.52,28.52,0,0,1-6.92,3.45A33,33,0,0,1,610,315.9a20.79,20.79,0,0,1-5.68-.15,14.29,14.29,0,0,1-4.94-1.74,12,12,0,0,1-3.66-3.36,11.58,11.58,0,0,1-1.94-5,9.29,9.29,0,0,1,3.13-3.54,7.52,7.52,0,0,1,3.71-1.18,10,10,0,0,1,3.83.66,16.16,16.16,0,0,1,3.7,1.95c-.12.48-.29,1.21-.53,2.17s-.44,1.94-.61,2.93a9.5,9.5,0,0,0-.14,2.66,1.33,1.33,0,0,0,1.1,1.35,4.27,4.27,0,0,0,2.38-.47,8.5,8.5,0,0,0,2.86-2.33,23.64,23.64,0,0,0,2.91-4.49,32.31,32.31,0,0,0,2.51-7c.06-.24.18-.69.36-1.36s.29-1.14.35-1.44L621,289.2a18.43,18.43,0,0,1-6.61,5.23,17,17,0,0,1-7.49,1.71,12.14,12.14,0,0,1-4.72-.92,8.14,8.14,0,0,1-3.48-2.77,10,10,0,0,1-1.67-4.67,18.16,18.16,0,0,1,.61-6.64L601,268.89c.12-.54.25-1.2.4-2a21.75,21.75,0,0,0,.31-2.41,15.76,15.76,0,0,0,0-2.38,6.19,6.19,0,0,0-.36-1.81,1.55,1.55,0,0,0-2-.94l-.23.11-.35-.67a16.05,16.05,0,0,1,4.19-2.55,15.59,15.59,0,0,1,4.54-1.27,8.3,8.3,0,0,1,5.37.94,8,8,0,0,1,3,3.52,12,12,0,0,1,1,5.05,22,22,0,0,1-.71,5.54l-3.52,12.88a7,7,0,0,0,.13,4.62,3.32,3.32,0,0,0,2.51,2.25c1.12.24,2.35-.23,3.7-1.4A16.12,16.12,0,0,0,622.89,282Z"/><polygon class="cls-4" points="40.41 388.46 40.41 286.16 21.01 288.18 40.41 388.46"/><polygon class="cls-4" points="658.25 200.58 617.14 183.6 617.14 221.16 658.25 200.58"/><polygon class="cls-4" points="658.25 200.58 658.25 302.88 677.65 300.86 658.25 200.58"/><polygon class="cls-5" points="657.9 225.59 601.71 231.44 601.71 206.46 657.9 200.61 657.9 225.59"/></g></g></svg>